<svg width="1920" height="1920" viewBox="0 0 1920 1920" fill="none" xmlns="http://www.w3.org/2000/svg">
<path d="M957.876 312.003C959.454 312.004 961.032 312.003 962.609 312.001C981.871 311.978 1000.95 312.421 1020.14 314.379C1021.42 314.504 1022.7 314.63 1024.02 314.759C1026.92 315.06 1029.81 315.393 1032.7 315.754C1033.72 315.879 1034.74 316.005 1035.79 316.135C1056.17 318.727 1076.13 322.732 1096.14 327.379C1098.06 327.819 1099.99 328.259 1101.91 328.699C1118.19 332.456 1134.05 337.197 1149.85 342.605C1152.05 343.349 1154.25 344.071 1156.45 344.789C1167.13 348.331 1177.55 352.483 1187.95 356.774C1189.5 357.414 1191.06 358.053 1192.61 358.688C1202.48 362.731 1211.95 367.213 1221.31 372.318C1225.04 374.347 1228.82 376.215 1232.64 378.066C1255.85 389.532 1277.92 403.099 1299.1 417.955C1301.27 419.474 1303.45 420.981 1305.63 422.488C1318.54 431.46 1318.54 431.46 1324.21 436.691C1326.62 438.805 1329.18 440.669 1331.76 442.566C1341.14 449.522 1350.11 457.049 1358.22 465.46C1360.03 467.27 1361.89 468.937 1363.84 470.598C1368.23 474.412 1372.36 478.444 1376.48 482.55C1377.63 483.695 1377.63 483.695 1378.8 484.863C1380.41 486.468 1382.02 488.075 1383.63 489.683C1386.06 492.113 1388.5 494.535 1390.94 496.957C1398.8 504.792 1406.33 512.596 1413.14 521.379C1414.07 522.493 1415.01 523.6 1415.96 524.699C1423.4 533.311 1430.29 542.293 1437.14 551.379C1438 552.512 1438.85 553.644 1439.71 554.777C1444.33 560.883 1448.81 567.062 1453.14 573.379C1453.6 574.058 1454.07 574.737 1454.55 575.437C1477.42 609.227 1496.87 645.55 1512.14 683.379C1512.77 684.935 1512.77 684.935 1513.42 686.523C1520.09 702.929 1526.09 719.402 1531.14 736.379C1531.47 737.477 1531.8 738.574 1532.14 739.706C1544.94 782.535 1551.52 827.496 1554.95 872C1555.09 873.753 1555.23 875.505 1555.37 877.257C1556.69 893.851 1557.72 910.428 1558.26 927.066C1558.3 928.327 1558.34 929.587 1558.39 930.886C1559.37 961.74 1559.36 992.613 1559.38 1023.48C1559.38 1027.65 1559.39 1031.82 1559.4 1035.99C1559.47 1073.22 1558.82 1110.38 1557.25 1147.58C1557.12 1150.82 1556.99 1154.06 1556.87 1157.3C1556.58 1164.56 1556.26 1171.81 1555.89 1179.07C1555.83 1180.19 1555.77 1181.31 1555.71 1182.47C1554.53 1205.21 1552.23 1227.79 1549.54 1250.4C1549.43 1251.34 1549.32 1252.27 1549.2 1253.24C1548.37 1259.99 1547.29 1266.68 1546.14 1273.38C1545.84 1275.14 1545.55 1276.9 1545.25 1278.66C1544.46 1283.41 1543.65 1288.15 1542.84 1292.89C1542.5 1294.91 1542.16 1296.93 1541.82 1298.95C1539.59 1312.31 1536.84 1325.35 1533.14 1338.38C1532.84 1339.44 1532.55 1340.51 1532.24 1341.61C1526.36 1362.66 1518.51 1383.13 1508.14 1402.38C1507.8 1403.02 1507.46 1403.66 1507.11 1404.32C1490.81 1435.16 1466.99 1461.8 1438.14 1481.38C1436.84 1482.32 1436.84 1482.32 1435.51 1483.27C1405.61 1504.33 1367.86 1513.62 1331.76 1513.69C1331.05 1513.69 1330.33 1513.7 1329.6 1513.7C1301.11 1513.78 1272.03 1506.93 1246.94 1493.33C1244.09 1491.83 1241.17 1490.5 1238.26 1489.13C1231.47 1485.78 1225.33 1481.62 1219.18 1477.2C1218.45 1476.69 1217.72 1476.18 1216.97 1475.66C1216.01 1474.96 1216.01 1474.96 1215.02 1474.26C1213.17 1473.21 1213.17 1473.21 1211.07 1473.51C1208.64 1474.6 1207.81 1475.73 1206.32 1477.92C1205.81 1478.66 1205.3 1479.4 1204.77 1480.16C1204.23 1480.95 1203.69 1481.75 1203.14 1482.57C1194.81 1494.46 1185.39 1505.13 1175.53 1515.76C1173.61 1517.86 1171.76 1519.99 1169.95 1522.19C1167.36 1525.25 1164.49 1527.8 1161.44 1530.38C1158.76 1532.7 1156.21 1535.13 1153.64 1537.57C1147.15 1543.6 1140.12 1548.83 1132.96 1554.04C1131.38 1555.2 1129.82 1556.38 1128.27 1557.56C1120.91 1563.12 1113.06 1567.72 1105.06 1572.28C1103.48 1573.18 1101.91 1574.11 1100.34 1575.03C1086.54 1582.96 1071.32 1588.73 1056.14 1593.38C1055.33 1593.64 1054.53 1593.9 1053.7 1594.17C1040.76 1598.26 1027.49 1601.28 1014.14 1603.63C1012.76 1603.87 1012.76 1603.87 1011.35 1604.12C965.428 1611.88 916.509 1605.86 872.984 1590.05C871.271 1589.43 869.548 1588.84 867.824 1588.25C845.469 1580.25 823.992 1566.67 805.136 1552.38C804.562 1551.95 803.988 1551.52 803.397 1551.07C793.466 1543.58 784.189 1535.47 775.414 1526.64C773.208 1524.35 773.208 1524.35 770.761 1522.57C767.109 1519.52 764.209 1516 761.136 1512.38C760.215 1511.32 759.293 1510.26 758.371 1509.2C748.464 1497.81 739.325 1486.07 731.136 1473.38C725.942 1473.85 722.498 1476.58 718.324 1479.44C706.689 1487.18 694.558 1493.03 681.539 1498.05C679.266 1498.94 677.014 1499.88 674.785 1500.86C650.62 1510.9 623.241 1513.57 597.308 1513.56C595.27 1513.57 593.233 1513.58 591.195 1513.6C579.117 1513.66 567.292 1512.36 555.511 1509.63C554.771 1509.46 554.031 1509.29 553.268 1509.11C550.886 1508.55 548.511 1507.97 546.136 1507.38C545.319 1507.18 544.501 1506.98 543.659 1506.77C516.948 1500.07 492.031 1488.06 470.136 1471.38C468.835 1470.4 468.835 1470.4 467.507 1469.39C457.604 1461.7 448.018 1453.16 440.136 1443.38C439.331 1442.41 438.525 1441.44 437.695 1440.44C407.064 1403.08 391.277 1356.99 381.136 1310.38C380.91 1309.35 380.684 1308.33 380.45 1307.27C373.775 1276.32 371.051 1244.4 367.886 1212.94C367.809 1212.18 367.732 1211.42 367.653 1210.63C365.458 1188.72 363.906 1166.81 363.186 1144.8C363.076 1141.43 362.957 1138.07 362.837 1134.71C362.603 1127.97 362.394 1121.24 362.198 1114.5C362.156 1113.05 362.113 1111.6 362.07 1110.15C361.22 1081.77 360.977 1053.42 361.006 1025.03C361.012 1019.43 361.008 1013.84 361.002 1008.24C360.971 972.019 361.215 935.797 363.449 899.629C363.511 898.582 363.574 897.536 363.638 896.457C366.762 844.5 366.762 844.5 370.136 834.379C370.312 832.599 370.483 830.819 370.63 829.036C372.379 808.444 376.417 787.479 381.596 767.477C382.213 765.081 382.805 762.679 383.398 760.277C388.819 738.627 395.284 717.171 403.367 696.359C404.071 694.547 404.759 692.729 405.445 690.91C412.617 672.352 420.943 653.927 430.144 636.285C431.236 634.186 432.311 632.079 433.386 629.972C443.119 611.044 454.059 592.898 466.136 575.379C466.716 574.535 467.295 573.691 467.893 572.821C474.356 563.428 480.864 554.168 488.136 545.379C489.204 544.007 490.266 542.632 491.324 541.254C500.622 529.304 510.262 517.9 520.689 506.919C522.446 505.048 524.146 503.134 525.824 501.191C532.217 493.797 538.605 486.444 546.109 480.152C548.568 478.001 550.842 475.704 553.136 473.379C556.676 469.801 560.282 466.399 564.109 463.132C565.515 461.916 566.896 460.672 568.257 459.406C574.783 453.343 581.75 447.991 588.851 442.632C592.042 440.223 595.184 437.762 598.302 435.26C610.954 425.127 624.368 415.922 638.136 407.379C639.542 406.482 640.947 405.583 642.351 404.683C708.351 362.466 779.569 335.538 856.136 320.379C857.156 320.172 858.175 319.966 859.226 319.754C866.166 318.375 873.122 317.307 880.136 316.379C880.786 316.29 881.436 316.201 882.105 316.11C907.321 312.691 932.468 312.001 957.876 312.003Z" fill="#FEFEFD"/>
<path d="M957.876 312.003C959.454 312.004 961.032 312.003 962.609 312.001C981.871 311.978 1000.95 312.421 1020.14 314.379C1021.42 314.504 1022.7 314.63 1024.02 314.759C1026.92 315.06 1029.81 315.393 1032.7 315.754C1033.72 315.879 1034.74 316.005 1035.79 316.135C1056.17 318.727 1076.13 322.732 1096.14 327.379C1098.06 327.819 1099.99 328.259 1101.91 328.699C1118.19 332.456 1134.05 337.197 1149.85 342.605C1152.05 343.349 1154.25 344.071 1156.45 344.789C1167.13 348.331 1177.55 352.483 1187.95 356.774C1189.5 357.414 1191.06 358.053 1192.61 358.688C1202.48 362.731 1211.95 367.213 1221.31 372.318C1225.04 374.347 1228.82 376.215 1232.64 378.066C1255.85 389.532 1277.92 403.099 1299.1 417.955C1301.27 419.474 1303.45 420.981 1305.63 422.488C1318.54 431.46 1318.54 431.46 1324.21 436.691C1326.62 438.805 1329.18 440.669 1331.76 442.566C1341.14 449.522 1350.11 457.049 1358.22 465.46C1360.03 467.27 1361.89 468.937 1363.84 470.598C1368.23 474.412 1372.36 478.444 1376.48 482.55C1377.63 483.695 1377.63 483.695 1378.8 484.863C1380.41 486.468 1382.02 488.075 1383.63 489.683C1386.06 492.113 1388.5 494.535 1390.94 496.957C1398.8 504.792 1406.33 512.596 1413.14 521.379C1414.07 522.493 1415.01 523.6 1415.96 524.699C1423.4 533.311 1430.29 542.293 1437.14 551.379C1438 552.512 1438.85 553.644 1439.71 554.777C1444.33 560.883 1448.81 567.062 1453.14 573.379C1453.6 574.058 1454.07 574.737 1454.55 575.437C1477.42 609.227 1496.87 645.55 1512.14 683.379C1512.77 684.935 1512.77 684.935 1513.42 686.523C1520.09 702.929 1526.09 719.402 1531.14 736.379C1531.47 737.477 1531.8 738.574 1532.14 739.706C1544.94 782.535 1551.52 827.496 1554.95 872C1555.09 873.753 1555.23 875.505 1555.37 877.257C1556.69 893.851 1557.72 910.428 1558.26 927.066C1558.3 928.327 1558.34 929.587 1558.39 930.886C1559.37 961.74 1559.36 992.613 1559.38 1023.48C1559.38 1027.65 1559.39 1031.82 1559.4 1035.99C1559.47 1073.22 1558.82 1110.38 1557.25 1147.58C1557.12 1150.82 1556.99 1154.06 1556.87 1157.3C1556.58 1164.56 1556.26 1171.81 1555.89 1179.07C1555.83 1180.19 1555.77 1181.31 1555.71 1182.47C1554.53 1205.21 1552.23 1227.79 1549.54 1250.4C1549.43 1251.34 1549.32 1252.27 1549.2 1253.24C1548.37 1259.99 1547.29 1266.68 1546.14 1273.38C1545.84 1275.14 1545.55 1276.9 1545.25 1278.66C1544.46 1283.41 1543.65 1288.15 1542.84 1292.89C1542.5 1294.91 1542.16 1296.93 1541.82 1298.95C1539.59 1312.31 1536.84 1325.35 1533.14 1338.38C1532.84 1339.44 1532.55 1340.51 1532.24 1341.61C1526.36 1362.66 1518.51 1383.13 1508.14 1402.38C1507.8 1403.02 1507.46 1403.66 1507.11 1404.32C1490.81 1435.16 1466.99 1461.8 1438.14 1481.38C1436.84 1482.32 1436.84 1482.32 1435.51 1483.27C1405.61 1504.33 1367.86 1513.62 1331.76 1513.69C1331.05 1513.69 1330.33 1513.7 1329.6 1513.7C1301.11 1513.78 1272.03 1506.93 1246.94 1493.33C1244.09 1491.83 1241.17 1490.5 1238.26 1489.13C1231.47 1485.78 1225.33 1481.62 1219.18 1477.2C1218.45 1476.69 1217.72 1476.18 1216.97 1475.66C1216.01 1474.96 1216.01 1474.96 1215.02 1474.26C1213.17 1473.21 1213.17 1473.21 1211.07 1473.51C1208.64 1474.6 1207.81 1475.73 1206.32 1477.92C1205.81 1478.66 1205.3 1479.4 1204.77 1480.16C1204.23 1480.95 1203.69 1481.75 1203.14 1482.57C1194.81 1494.46 1185.39 1505.13 1175.53 1515.76C1173.61 1517.86 1171.76 1519.99 1169.95 1522.19C1167.36 1525.25 1164.49 1527.8 1161.44 1530.38C1158.76 1532.7 1156.21 1535.13 1153.64 1537.57C1147.15 1543.6 1140.12 1548.83 1132.96 1554.04C1131.38 1555.2 1129.82 1556.38 1128.27 1557.56C1120.91 1563.12 1113.06 1567.72 1105.06 1572.28C1103.48 1573.18 1101.91 1574.11 1100.34 1575.03C1086.54 1582.96 1071.32 1588.73 1056.14 1593.38C1055.33 1593.64 1054.53 1593.9 1053.7 1594.17C1040.76 1598.26 1027.49 1601.28 1014.14 1603.63C1012.76 1603.87 1012.76 1603.87 1011.35 1604.12C965.428 1611.88 916.509 1605.86 872.984 1590.05C871.271 1589.43 869.548 1588.84 867.824 1588.25C845.469 1580.25 823.992 1566.67 805.136 1552.38C804.562 1551.95 803.988 1551.52 803.397 1551.07C793.466 1543.58 784.189 1535.47 775.414 1526.64C773.208 1524.35 773.208 1524.35 770.761 1522.57C767.109 1519.52 764.209 1516 761.136 1512.38C760.215 1511.32 759.293 1510.26 758.371 1509.2C748.464 1497.81 739.325 1486.07 731.136 1473.38C725.942 1473.85 722.498 1476.58 718.324 1479.44C706.689 1487.18 694.558 1493.03 681.539 1498.05C679.266 1498.94 677.014 1499.88 674.785 1500.86C650.62 1510.9 623.241 1513.57 597.308 1513.56C595.27 1513.57 593.233 1513.58 591.195 1513.6C579.117 1513.66 567.292 1512.36 555.511 1509.63C554.771 1509.46 554.031 1509.29 553.268 1509.11C550.886 1508.55 548.511 1507.97 546.136 1507.38C545.319 1507.18 544.501 1506.98 543.659 1506.77C516.948 1500.07 492.031 1488.06 470.136 1471.38C468.835 1470.4 468.835 1470.4 467.507 1469.39C457.604 1461.7 448.018 1453.16 440.136 1443.38C439.331 1442.41 438.525 1441.44 437.695 1440.44C407.064 1403.08 391.277 1356.99 381.136 1310.38C380.91 1309.35 380.684 1308.33 380.45 1307.27C373.775 1276.32 371.051 1244.4 367.886 1212.94C367.809 1212.18 367.732 1211.42 367.653 1210.63C365.458 1188.72 363.906 1166.81 363.186 1144.8C363.076 1141.43 362.957 1138.07 362.837 1134.71C362.603 1127.97 362.394 1121.24 362.198 1114.5C362.156 1113.05 362.113 1111.6 362.07 1110.15C361.22 1081.77 360.977 1053.42 361.006 1025.03C361.012 1019.43 361.008 1013.84 361.002 1008.24C360.971 972.019 361.215 935.797 363.449 899.629C363.511 898.582 363.574 897.536 363.638 896.457C366.762 844.5 366.762 844.5 370.136 834.379C370.312 832.599 370.483 830.819 370.63 829.036C372.379 808.444 376.417 787.479 381.596 767.477C382.213 765.081 382.805 762.679 383.398 760.277C388.819 738.627 395.284 717.171 403.367 696.359C404.071 694.547 404.759 692.729 405.445 690.91C412.617 672.352 420.943 653.927 430.144 636.285C431.236 634.186 432.311 632.079 433.386 629.972C443.119 611.044 454.059 592.898 466.136 575.379C466.716 574.535 467.295 573.691 467.893 572.821C474.356 563.428 480.864 554.168 488.136 545.379C489.204 544.007 490.266 542.632 491.324 541.254C500.622 529.304 510.262 517.9 520.689 506.919C522.446 505.048 524.146 503.134 525.824 501.191C532.217 493.797 538.605 486.444 546.109 480.152C548.568 478.001 550.842 475.704 553.136 473.379C556.676 469.801 560.282 466.399 564.109 463.132C565.515 461.916 566.896 460.672 568.257 459.406C574.783 453.343 581.75 447.991 588.851 442.632C592.042 440.223 595.184 437.762 598.302 435.26C610.954 425.127 624.368 415.922 638.136 407.379C639.542 406.482 640.947 405.583 642.351 404.683C708.351 362.466 779.569 335.538 856.136 320.379C857.156 320.172 858.175 319.966 859.226 319.754C866.166 318.375 873.122 317.307 880.136 316.379C880.786 316.29 881.436 316.201 882.105 316.11C907.321 312.691 932.468 312.001 957.876 312.003ZM889.203 369.11C886.999 369.396 884.794 369.662 882.587 369.923C881.847 370.011 881.108 370.099 880.346 370.19C878.305 370.434 876.264 370.676 874.223 370.918C871.233 371.201 871.233 371.201 869.136 372.379C867.127 372.678 865.113 372.943 863.097 373.191C854.512 374.375 846.178 376.338 837.761 378.379C836.255 378.739 834.748 379.098 833.242 379.457C795.261 388.526 756.918 400.89 722.317 419.229C719.691 420.614 717.05 421.97 714.41 423.328C712.36 424.386 710.31 425.444 708.261 426.504C707.31 426.995 706.358 427.486 705.377 427.992C699.153 431.236 693.123 434.717 687.136 438.379C685.722 439.225 684.306 440.07 682.89 440.914C671.675 447.654 660.866 454.894 650.136 462.379C648.636 463.417 648.636 463.417 647.105 464.476C644.772 466.097 642.452 467.734 640.136 469.379C639.331 469.941 638.525 470.503 637.695 471.082C625.915 479.438 614.947 488.898 604.011 498.316C603.421 498.823 602.83 499.33 602.221 499.852C599.273 502.412 596.447 505.038 593.707 507.82C591.322 510.24 588.874 512.514 586.296 514.726C581.5 518.869 577.043 523.326 572.574 527.816C571.762 528.624 570.951 529.431 570.115 530.263C565.803 534.582 561.646 538.975 557.667 543.603C555.586 546.017 553.423 548.351 551.261 550.691C546.341 556.094 541.694 561.668 537.136 567.379C536.723 567.892 536.31 568.406 535.884 568.935C513.027 597.37 494.134 628.144 477.136 660.379C476.766 661.078 476.395 661.778 476.014 662.498C473.608 667.072 471.347 671.707 469.136 676.379C468.63 677.444 468.123 678.509 467.602 679.606C459.315 697.11 452.217 714.655 446.241 733.086C445.131 736.393 443.912 739.645 442.683 742.91C439.347 752.179 437.205 761.739 434.949 771.316C434.291 774.075 433.632 776.833 432.971 779.591C432.565 781.292 432.161 782.992 431.759 784.694C430.926 788.204 430.051 791.674 429.056 795.144C421.114 823.065 419.643 853.843 417.602 882.738C417.398 885.59 417.182 888.441 416.967 891.292C416.752 894.148 416.543 897.004 416.336 899.86C416.196 901.781 416.053 903.701 415.909 905.622C414.261 929.194 413.979 952.81 414.002 976.431C414.005 980.037 414.002 983.642 414.001 987.248C413.999 993.305 414.001 999.362 414.006 1005.42C414.011 1011.54 414.011 1017.66 414.006 1023.77C413.972 1068.4 414.197 1112.93 416.879 1157.49C417.015 1159.75 417.148 1162.01 417.28 1164.26C418.577 1186.33 419.92 1208.38 422.136 1230.38C422.271 1231.76 422.406 1233.15 422.541 1234.53C425.532 1264.93 431.058 1294.91 439.136 1324.38C439.361 1325.22 439.586 1326.05 439.817 1326.92C449.418 1362.35 465.043 1392.65 490.136 1419.38C490.719 1420.03 491.302 1420.68 491.902 1421.34C507.016 1437.56 530.156 1448.28 551.136 1454.38C551.78 1454.57 552.425 1454.76 553.088 1454.95C594.663 1466.94 640.757 1463 679.054 1442.34C697.537 1432.08 713.543 1418.35 728.251 1403.28C728.846 1402.67 729.441 1402.06 730.054 1401.43C730.84 1400.62 730.84 1400.62 731.641 1399.79C734.073 1397.49 735.754 1396.43 739.093 1396.01C742.136 1396.38 742.136 1396.38 744.085 1397.93C749.922 1405.72 754.911 1413.97 759.902 1422.32C770.646 1440.23 782.62 1457.6 796.851 1472.91C798.753 1474.96 800.579 1477.05 802.386 1479.19C811.957 1490.13 822.418 1499.8 834.136 1508.38C834.822 1508.88 835.507 1509.38 836.213 1509.9C855.239 1523.78 875.607 1535.21 898.136 1542.38C899.821 1542.95 901.506 1543.52 903.191 1544.09C940.785 1556.53 984.705 1558.4 1023.14 1548.38C1024.52 1548.06 1025.91 1547.75 1027.3 1547.44C1044.31 1543.37 1060.82 1536.76 1076.14 1528.38C1077.06 1527.88 1077.06 1527.88 1078.01 1527.36C1085.72 1523.16 1093.07 1518.6 1100.14 1513.38C1101.1 1512.68 1102.07 1511.98 1103.07 1511.26C1108.94 1506.94 1114.48 1502.43 1119.84 1497.49C1121.9 1495.59 1124 1493.76 1126.14 1491.94C1134.68 1484.46 1142.11 1476.28 1149.14 1467.38C1150.01 1466.3 1150.88 1465.21 1151.76 1464.13C1164.1 1448.77 1174.69 1432.27 1184.73 1415.33C1192.8 1401.71 1192.8 1401.71 1198.14 1396.38C1201.26 1395.82 1201.26 1395.82 1205.14 1396.38C1207 1397.69 1207 1397.69 1208.9 1399.43C1209.95 1400.38 1209.95 1400.38 1211.02 1401.36C1214.35 1404.54 1217.56 1407.82 1220.76 1411.13C1227.76 1418.23 1235.05 1424.54 1243.14 1430.38C1243.88 1430.92 1244.62 1431.47 1245.39 1432.03C1277.64 1455.22 1316.91 1465.69 1356.35 1459.35C1383.56 1454.05 1409.14 1440.34 1429.14 1421.38C1429.89 1420.68 1429.89 1420.68 1430.66 1419.97C1439.64 1411.64 1446.59 1402.71 1453.14 1392.38C1453.53 1391.77 1453.93 1391.16 1454.34 1390.53C1461.15 1380.02 1466.26 1368.89 1471.14 1357.38C1471.45 1356.66 1471.76 1355.95 1472.08 1355.21C1478.49 1340.47 1482.23 1324.92 1486.14 1309.38C1486.39 1308.38 1486.65 1307.38 1486.91 1306.35C1488.43 1300.38 1489.84 1294.4 1491.14 1288.38C1491.31 1287.59 1491.48 1286.81 1491.65 1286C1498.81 1251.72 1500.66 1216.07 1502.68 1181.18C1502.99 1175.75 1503.34 1170.32 1503.73 1164.89C1504.7 1151.08 1505.35 1137.28 1505.68 1123.45C1505.7 1122.56 1505.72 1121.67 1505.74 1120.76C1506.42 1091.45 1506.32 1062.12 1506.32 1032.81C1506.32 1027.14 1506.33 1021.48 1506.34 1015.82C1506.41 984.469 1506.45 953.137 1505.24 921.804C1505.2 920.768 1505.16 919.732 1505.12 918.664C1502.92 863.195 1497.4 808.037 1480.89 754.845C1480.2 752.588 1479.54 750.326 1478.91 748.054C1472.62 725.713 1464.97 703.525 1454.39 682.847C1452.27 678.697 1450.29 674.491 1448.31 670.275C1443.87 660.84 1439.21 651.556 1434.26 642.379C1433.46 640.884 1433.46 640.884 1432.64 639.359C1430.11 634.723 1427.5 630.347 1424.34 626.114C1422.48 623.428 1420.99 620.55 1419.43 617.677C1417.3 613.884 1414.88 610.295 1412.45 606.691C1411.66 605.524 1411.66 605.524 1410.87 604.333C1400.6 589.109 1389.74 574.448 1377.79 560.504C1375.34 557.638 1372.99 554.702 1370.64 551.754C1366.62 546.809 1362.22 542.367 1357.68 537.918C1355.62 535.86 1353.7 533.788 1351.82 531.566C1344.05 522.478 1335.27 514.088 1326.14 506.379C1324.39 504.864 1322.64 503.345 1320.9 501.826C1318.28 499.546 1315.65 497.275 1313.02 495.006C1311.83 493.979 1310.64 492.952 1309.46 491.923C1297.27 481.359 1284.52 471.396 1271.14 462.379C1270.06 461.646 1268.98 460.914 1267.87 460.16C1253.66 450.572 1239.36 441.31 1224.12 433.461C1220.38 431.531 1216.76 429.446 1213.14 427.316C1206.01 423.193 1198.62 419.746 1191.14 416.32C1189.08 415.352 1187.05 414.331 1185.02 413.297C1181.69 411.618 1178.33 410.228 1174.82 408.941C1170.75 407.407 1166.77 405.794 1162.82 403.941C1152.86 399.322 1142.43 395.7 1131.98 392.336C1129.84 391.614 1127.71 390.823 1125.61 390C1075.19 370.986 1017.73 364.693 964.258 364.933C962.093 364.941 959.928 364.944 957.763 364.946C934.753 364.982 912.03 366.073 889.203 369.11Z" fill="#FCFCFA"/>
<path d="M960.511 365.004C961.613 365.004 961.613 365.004 962.737 365.005C1006.43 365.034 1050.01 368.827 1092.27 380.587C1095.24 381.407 1098.21 382.2 1101.19 382.99C1104.19 383.788 1107.19 384.592 1110.19 385.398C1111.68 385.797 1113.17 386.195 1114.65 386.592C1116.75 387.153 1118.84 387.722 1120.94 388.293C1122.16 388.622 1123.37 388.952 1124.63 389.291C1128.29 390.427 1131.63 391.821 1135.14 393.379C1137.61 394.332 1140.09 395.27 1142.57 396.191C1143.26 396.447 1143.95 396.704 1144.65 396.968C1148.22 398.297 1151.78 399.616 1155.35 400.925C1162.23 403.463 1169 406.117 1175.64 409.242C1178.03 410.33 1180.43 411.27 1182.89 412.191C1187.85 414.142 1192.5 416.623 1197.18 419.17C1201.88 421.728 1206.64 424.141 1211.45 426.504C1216.66 429.076 1221.7 431.787 1226.63 434.864C1229.11 436.365 1231.63 437.744 1234.19 439.109C1240.23 442.385 1246.07 445.924 1251.89 449.566C1252.93 450.221 1253.98 450.876 1255.06 451.551C1262.82 456.451 1270.28 461.63 1277.57 467.197C1280 469.032 1282.48 470.794 1284.95 472.566C1294.13 479.249 1302.79 486.556 1311.43 493.925C1313.12 495.364 1314.82 496.794 1316.52 498.222C1331.47 510.852 1346.43 524.179 1359.14 539.109C1360.75 540.942 1362.39 542.722 1364.07 544.492C1371.13 551.954 1377.64 559.632 1383.89 567.784C1385.73 570.136 1387.65 572.409 1389.57 574.691C1398.49 585.537 1406.23 597.362 1413.95 609.074C1415.76 611.815 1417.6 614.536 1419.45 617.254C1421.74 620.699 1423.79 624.228 1425.76 627.867C1426.72 629.628 1427.72 631.375 1428.73 633.109C1439.65 651.763 1449.34 671.115 1458.03 690.897C1458.79 692.593 1459.56 694.281 1460.35 695.962C1463.73 703.203 1466.49 710.588 1469.14 718.129C1469.58 719.388 1470.02 720.647 1470.47 721.906C1471.32 724.341 1472.18 726.778 1473.03 729.216C1473.89 731.677 1474.76 734.133 1475.65 736.586C1479.63 747.943 1482.42 759.649 1485.36 771.309C1486 773.842 1486.65 776.372 1487.3 778.902C1488.1 782.053 1488.88 785.208 1489.64 788.368C1489.99 789.769 1490.34 791.168 1490.71 792.565C1501.54 834.209 1503.6 878.985 1505.24 921.804C1505.3 923.45 1505.3 923.45 1505.37 925.13C1506.53 956.155 1506.4 987.193 1506.34 1018.24C1506.33 1023.9 1506.32 1029.57 1506.32 1035.24C1506.33 1096.34 1506.33 1096.34 1505.68 1123.44C1505.65 1124.7 1505.65 1124.7 1505.62 1125.99C1505.28 1139.72 1504.54 1153.42 1503.57 1167.13C1503.17 1172.74 1502.84 1178.35 1502.52 1183.96C1498.38 1254.5 1498.38 1254.5 1491.14 1288.38C1490.93 1289.36 1490.72 1290.35 1490.51 1291.37C1485.38 1315.49 1479.24 1339.36 1469.21 1361.95C1468.2 1364.23 1467.22 1366.52 1466.25 1368.81C1449.57 1406.97 1419.81 1436.02 1381.45 1451.75C1374.49 1454.41 1367.44 1456.36 1360.16 1457.94C1358.75 1458.24 1357.35 1458.57 1355.94 1458.92C1319.4 1467.29 1280.94 1454.75 1250.08 1435.47C1247.7 1433.84 1245.41 1432.15 1243.14 1430.38C1242.35 1429.78 1241.56 1429.18 1240.74 1428.56C1230.33 1420.46 1220.91 1411.3 1211.68 1401.89C1207.5 1397.59 1207.5 1397.59 1201.95 1395.82C1197.07 1396.54 1195.84 1398.1 1192.87 1401.87C1190.04 1405.96 1187.61 1410.23 1185.17 1414.56C1175.45 1431.59 1164.74 1448.33 1152.14 1463.38C1151.44 1464.24 1150.75 1465.11 1150.04 1466C1144.36 1473.07 1138.36 1479.78 1132.14 1486.38C1131.45 1487.11 1130.76 1487.84 1130.05 1488.6C1125.65 1493.13 1120.92 1497.14 1115.99 1501.09C1114.1 1502.6 1112.23 1504.14 1110.37 1505.7C1104.25 1510.85 1097.96 1515.22 1091.14 1519.38C1090.15 1520.02 1089.17 1520.65 1088.15 1521.31C1079.5 1526.84 1070.51 1531.22 1061.14 1535.38C1060.1 1535.84 1059.06 1536.3 1057.98 1536.78C1055.05 1538.04 1052.11 1539.22 1049.14 1540.38C1047.94 1540.86 1046.74 1541.34 1045.5 1541.84C1033.06 1546.65 1020.22 1549.02 1007.14 1551.38C1005.93 1551.63 1005.93 1551.63 1004.7 1551.88C998.161 1553.17 991.915 1553.7 985.257 1553.71C984.256 1553.72 983.254 1553.73 982.222 1553.74C979.005 1553.76 975.79 1553.76 972.574 1553.75C970.923 1553.75 970.923 1553.75 969.238 1553.75C933.522 1553.63 901.187 1546.47 869.136 1530.38C867.81 1529.74 866.483 1529.1 865.156 1528.46C849.97 1520.95 835.874 1510.49 823.136 1499.38C822.337 1498.69 821.538 1498 820.714 1497.29C810.932 1488.67 801.429 1479.45 793.136 1469.38C792.292 1468.37 791.448 1467.37 790.578 1466.33C778.169 1451.34 767.59 1435.04 757.57 1418.39C754.275 1412.92 750.791 1407.61 747.136 1402.38C746.448 1401.36 746.448 1401.36 745.746 1400.32C744.442 1398.43 744.442 1398.43 742.136 1396.38C738.57 1395.91 736.778 1395.95 733.75 1397.96C732.611 1399.06 732.611 1399.06 731.449 1400.19C730.588 1401.01 729.727 1401.83 728.839 1402.68C726.114 1405.4 723.405 1408.14 720.699 1410.88C715.48 1416.14 709.979 1420.83 704.136 1425.38C703.225 1426.11 702.314 1426.84 701.375 1427.59C668.45 1453.23 624.91 1465.49 583.395 1460.97C548.309 1456.39 515.991 1444.14 490.136 1419.38C489.475 1418.77 488.814 1418.16 488.132 1417.53C478.611 1408.47 470.885 1397.6 464.136 1386.38C463.599 1385.56 463.061 1384.75 462.507 1383.91C456.275 1374.08 452.388 1363.14 448.254 1352.3C447.334 1349.9 446.394 1347.5 445.445 1345.11C423.776 1288.9 420.924 1225.77 417.539 1166.36C417.134 1159.28 416.69 1152.2 416.224 1145.12C415.444 1132.47 414.915 1119.83 414.593 1107.17C414.572 1106.33 414.55 1105.48 414.528 1104.62C413.854 1076.92 413.986 1049.2 414.008 1021.49C414.012 1015.37 414.009 1009.25 414.004 1003.12C413.999 997.092 413.999 991.06 414.002 985.028C414.003 981.478 414.003 977.928 414 974.378C413.98 950.198 414.382 926.03 416.187 901.91C416.288 900.519 416.389 899.127 416.49 897.736C416.699 894.876 416.912 892.017 417.128 889.158C417.343 886.306 417.552 883.452 417.753 880.599C419.906 850.148 422.452 818.793 430.546 789.292C431.802 784.697 432.934 780.086 434.003 775.445C451.075 702.198 486.118 631.048 533.136 572.379C533.88 571.443 534.624 570.507 535.39 569.543C540.002 563.816 544.831 558.333 549.808 552.921C551.743 550.808 553.638 548.672 555.511 546.504C563.334 537.54 571.49 528.93 579.886 520.504C580.583 519.802 581.279 519.101 581.997 518.379C585.966 514.421 590.039 510.647 594.283 506.986C596.897 504.719 599.417 502.362 601.949 500.004C606.532 495.775 611.227 491.739 616.089 487.832C618.409 485.964 620.707 484.079 622.996 482.175C629.573 476.725 636.065 471.536 643.386 467.101C646.614 465.079 649.684 462.868 652.761 460.629C665.071 451.731 677.884 443.783 691.136 436.379C692.867 435.382 694.598 434.385 696.327 433.386C728.108 415.062 761.512 401.388 796.136 389.379C797.337 388.956 797.337 388.956 798.563 388.524C812.898 383.521 827.669 380.394 842.484 377.183C847.107 376.165 851.713 375.077 856.318 373.973C859.796 373.239 863.232 372.903 866.771 372.62C869.129 372.379 871.36 371.952 873.675 371.445C879.525 370.246 885.393 369.54 891.324 368.879C892.326 368.761 893.328 368.644 894.361 368.523C897.249 368.194 900.138 367.887 903.03 367.595C904.511 367.443 905.992 367.285 907.473 367.124C925.139 365.22 942.764 364.976 960.511 365.004ZM898.136 418.379C896.623 418.57 895.11 418.761 893.597 418.951C890.188 419.396 886.787 419.874 883.386 420.379C882.226 420.549 881.065 420.719 879.869 420.894C864.955 423.113 850.604 426.132 836.136 430.379C835.099 430.679 834.062 430.98 832.994 431.291C825.027 433.604 817.076 435.97 809.136 438.379C808.312 438.627 807.487 438.875 806.637 439.131C786.58 445.237 766.756 453.555 748.207 463.31C745.783 464.561 743.337 465.762 740.886 466.961C730.031 472.28 719.438 477.841 709.129 484.158C707.147 485.372 705.156 486.571 703.164 487.769C694.15 493.246 685.593 499.249 677.097 505.496C673.838 507.889 670.502 510.137 667.136 512.379C656.672 519.837 646.751 527.86 637.136 536.379C636.266 537.148 635.396 537.918 634.5 538.711C632.03 540.917 629.582 543.146 627.136 545.379C626.109 546.301 625.082 547.222 624.054 548.144C617.26 554.28 610.931 560.686 604.789 567.472C602.684 569.779 600.553 572.007 598.324 574.191C579.092 593.059 563.028 616.045 548.136 638.379C547.73 638.982 547.323 639.585 546.904 640.207C535.861 656.624 526.448 674.043 518.244 692.028C516.959 694.754 515.591 697.432 514.222 700.117C511.057 706.414 508.332 712.844 505.699 719.379C505.223 720.555 504.747 721.731 504.257 722.943C500.228 732.987 496.532 743.105 493.136 753.379C492.88 754.14 492.625 754.901 492.361 755.685C481.76 787.328 475.54 820.158 471.522 853.23C471.194 855.907 470.847 858.581 470.484 861.254C469.424 869.115 468.776 876.936 468.382 884.855C468.136 888.378 468.136 888.378 467.654 891.066C467.038 895.005 466.803 898.925 466.609 902.901C466.546 904.148 466.546 904.148 466.481 905.421C466.344 908.161 466.215 910.901 466.088 913.641C466.044 914.593 465.999 915.544 465.953 916.524C465.038 936.501 464.854 956.447 464.901 976.442C464.91 981.153 464.908 985.865 464.907 990.577C464.908 998.435 464.917 1006.29 464.93 1014.15C464.946 1023.21 464.951 1032.27 464.951 1041.34C464.95 1051.08 464.957 1060.83 464.966 1070.57C464.968 1073.35 464.969 1076.13 464.969 1078.91C464.97 1083.26 464.977 1087.62 464.987 1091.97C464.989 1093.56 464.991 1095.15 464.99 1096.74C464.99 1098.91 464.995 1101.08 465.003 1103.26C465.004 1104.47 465.006 1105.69 465.008 1106.94C465.14 1110.48 465.602 1113.87 466.136 1117.38C466.269 1120.16 466.366 1122.92 466.418 1125.71C466.436 1126.49 466.454 1127.27 466.472 1128.08C466.51 1129.74 466.547 1131.4 466.582 1133.07C466.673 1137.35 466.779 1141.64 466.886 1145.92C466.907 1146.75 466.928 1147.58 466.949 1148.44C467.106 1154.61 467.314 1160.78 467.636 1166.94C467.672 1167.66 467.707 1168.37 467.744 1169.11C467.891 1171.71 468.099 1174.2 468.636 1176.75C469.151 1179.45 469.326 1182.01 469.418 1184.76C469.455 1185.76 469.492 1186.76 469.531 1187.8C469.601 1189.9 469.672 1192 469.742 1194.1C469.779 1195.1 469.817 1196.1 469.855 1197.13C469.885 1198.04 469.916 1198.95 469.947 1199.89C470.056 1202.3 470.056 1202.3 470.627 1204.26C471.365 1207.33 471.408 1210.36 471.558 1213.52C472.052 1222.47 473.154 1231.31 474.386 1240.19C474.55 1241.39 474.55 1241.39 474.717 1242.61C477.524 1263.06 481.054 1283.36 486.136 1303.38C486.43 1304.59 486.724 1305.79 487.027 1307.04C495.458 1340.44 510.458 1375.24 540.386 1394.63C552.327 1401.62 564.742 1405.35 578.136 1408.38C578.703 1408.55 579.27 1408.73 579.854 1408.91C583.226 1409.6 586.594 1409.58 590.023 1409.62C590.798 1409.62 591.574 1409.63 592.372 1409.64C594.019 1409.66 595.666 1409.67 597.312 1409.67C598.963 1409.69 600.615 1409.71 602.265 1409.74C626.736 1410.18 648.742 1403.23 668.824 1389.13C669.449 1388.69 670.074 1388.26 670.718 1387.81C672.23 1386.72 673.689 1385.55 675.136 1384.38C675.136 1383.72 675.136 1383.06 675.136 1382.38C675.673 1382.16 676.209 1381.94 676.761 1381.72C679.974 1379.91 682.479 1377.46 685.136 1374.94C685.709 1374.41 686.281 1373.88 686.871 1373.33C689.655 1370.73 692.411 1368.12 695.128 1365.46C709.183 1351.97 723.293 1344.81 743.059 1344.89C757.862 1345.37 770.947 1353.31 780.964 1363.89C789.087 1373.19 795.339 1383.42 801.673 1393.96C826.583 1435.16 858.52 1472.05 904.1 1490.55C905.545 1491.14 906.983 1491.74 908.417 1492.36C935.516 1503.73 969.322 1507.23 998.136 1501.38C999.635 1501.1 1001.13 1500.81 1002.63 1500.53C1047.43 1491.83 1085.14 1467.38 1113.14 1431.38C1114.34 1429.89 1114.34 1429.89 1115.56 1428.37C1123.48 1418.43 1129.96 1407.71 1136.46 1396.81C1155.89 1364.31 1155.89 1364.31 1167.14 1356.38C1168.43 1355.46 1168.43 1355.46 1169.75 1354.52C1182.7 1345.83 1196.15 1343.79 1211.62 1345.84C1229.68 1349.51 1242.82 1361.8 1255.32 1374.54C1274.73 1394.27 1300.14 1409.31 1328.42 1409.76C1355.58 1409.71 1377.74 1400.72 1397.14 1381.38C1421.72 1356.48 1432.26 1320.83 1439.14 1287.38C1439.28 1286.75 1439.42 1286.12 1439.56 1285.47C1447.41 1250.02 1449.4 1213.19 1451.94 1177.07C1452.11 1174.7 1452.29 1172.34 1452.47 1169.97C1459.14 1081.35 1459.69 989.797 1438.14 789.379C1437.8 787.984 1437.8 787.984 1437.45 786.562C1432.41 766.003 1426.13 745.978 1418.14 726.379C1417.78 725.485 1417.42 724.591 1417.05 723.67C1407.19 699.185 1395.85 675.937 1382.14 653.379C1381.45 652.244 1381.45 652.244 1380.75 651.087C1370.44 634.041 1359.04 617.84 1346.63 602.26C1345.36 600.666 1344.11 599.06 1342.86 597.453C1338.17 591.45 1333.09 585.851 1327.9 580.285C1326.51 578.781 1325.13 577.268 1323.75 575.751C1317.54 568.911 1311.19 562.245 1304.66 555.714C1303.13 554.186 1301.61 552.651 1300.1 551.115C1294.51 545.5 1288.8 540.273 1282.58 535.353C1280.1 533.351 1277.77 531.243 1275.45 529.066C1269.32 523.488 1262.67 518.639 1256 513.746C1254.39 512.566 1252.79 511.378 1251.19 510.187C1243.69 504.644 1235.94 499.492 1228.14 494.379C1227.26 493.804 1227.26 493.804 1226.37 493.218C1210.69 482.908 1194.58 473.902 1177.72 465.654C1175.35 464.483 1172.99 463.29 1170.64 462.082C1163.64 458.497 1156.7 455.254 1149.3 452.582C1146.77 451.619 1144.33 450.589 1141.87 449.48C1127.46 443.013 1112.63 438.115 1097.41 434.002C1094.41 433.178 1091.43 432.274 1088.45 431.379C1071.11 426.494 1053.6 422.953 1035.82 420.129C1034.66 419.941 1034.66 419.941 1033.48 419.751C1028.04 418.882 1022.6 418.096 1017.14 417.379C1016.38 417.277 1015.62 417.176 1014.83 417.071C998.666 415.003 982.451 415.036 966.183 415.063C963.123 415.067 960.063 415.061 957.002 415.042C937.151 414.925 917.85 415.752 898.136 418.379Z" fill="#040668"/>
<path d="M1168.14 461.379C1191.31 472.102 1213.77 483.616 1234.55 498.543C1236.67 500.044 1238.79 501.511 1240.94 502.964C1248.6 508.159 1256 513.48 1263.14 519.379C1264.7 520.609 1266.26 521.838 1267.82 523.066C1272.18 526.552 1276.42 530.163 1280.64 533.816C1281.53 534.586 1281.53 534.586 1282.43 535.371C1284.34 537.033 1286.24 538.704 1288.14 540.379C1288.88 541.03 1289.62 541.681 1290.39 542.351C1296.88 548.113 1303.06 554.15 1309.19 560.299C1310.83 561.946 1312.48 563.587 1314.12 565.228C1319.15 570.256 1324.1 575.313 1328.72 580.726C1330.68 583.014 1332.76 585.186 1334.82 587.379C1340.6 593.708 1345.62 600.539 1350.69 607.436C1352.43 609.776 1354.23 612.073 1356.03 614.367C1364.21 624.805 1371.35 635.909 1378.23 647.242C1379.45 649.251 1380.69 651.249 1381.95 653.234C1396.9 676.855 1409.19 702.277 1419.14 728.379C1419.74 729.873 1420.35 731.366 1420.95 732.859C1448.69 802.006 1454.38 879.375 1455.7 953.129C1455.72 954.276 1455.74 955.424 1455.76 956.607C1457.16 1038.65 1456.37 1120.53 1450.14 1202.38C1450.07 1203.28 1450 1204.17 1449.93 1205.1C1446.96 1244.43 1442.54 1283.8 1430.14 1321.38C1429.85 1322.27 1429.56 1323.16 1429.27 1324.08C1425.58 1335.54 1421.14 1345.94 1415.14 1356.38C1414.28 1358 1413.43 1359.63 1412.57 1361.25C1399.42 1384.57 1377.99 1400.09 1352.66 1407.47C1337.8 1411.31 1320.82 1410.71 1306.14 1406.38C1304.71 1406.01 1304.71 1406.01 1303.26 1405.64C1289.1 1401.58 1275.94 1393.22 1265.14 1383.38C1264.15 1382.5 1263.17 1381.63 1262.16 1380.72C1257.36 1376.41 1252.73 1371.98 1248.26 1367.32C1235.07 1354.01 1219.77 1345.53 1200.82 1345.07C1187.18 1345.31 1175.44 1348.7 1165.2 1358.07C1164.18 1359.21 1164.18 1359.21 1163.14 1360.38C1162.37 1360.96 1161.6 1361.53 1160.82 1362.13C1157.78 1364.68 1155.51 1367.5 1153.2 1370.69C1152.74 1371.33 1152.27 1371.96 1151.8 1372.62C1146.25 1380.39 1141.39 1388.6 1136.5 1396.8C1127.44 1411.94 1117.79 1426.14 1106.14 1439.38C1105.36 1440.27 1104.59 1441.15 1103.79 1442.07C1095.58 1451.33 1087.05 1459.93 1077.14 1467.38C1076.09 1468.17 1075.04 1468.96 1073.96 1469.78C1054.37 1484.32 1032.92 1494.04 1009.14 1499.38C1008.43 1499.54 1007.73 1499.7 1007.01 1499.86C972.985 1507.39 935.189 1504.4 903.136 1490.38C902.209 1489.99 902.209 1489.99 901.262 1489.59C884.456 1482.45 868.768 1472.54 855.136 1460.38C854.178 1459.54 853.221 1458.7 852.234 1457.84C831.069 1439.08 815.416 1416.53 800.886 1392.44C789.054 1372.85 775.517 1352.54 752.241 1345.83C737.728 1342.7 722.401 1345.76 709.919 1353.35C702.846 1357.94 696.918 1363.74 690.926 1369.63C688.105 1372.39 685.221 1375.07 682.324 1377.75C681.369 1378.65 680.413 1379.54 679.429 1380.46C677.136 1382.38 677.136 1382.38 675.136 1382.38C675.136 1383.04 675.136 1383.7 675.136 1384.38C673.75 1385.63 673.75 1385.63 671.804 1387.02C671.094 1387.53 670.384 1388.04 669.652 1388.57C662.4 1393.62 655.51 1398.37 647.136 1401.38C646.459 1401.62 645.782 1401.87 645.085 1402.12C631.025 1407.14 618.498 1409.75 603.508 1409.75C601.102 1409.75 598.699 1409.79 596.294 1409.83C570.426 1410.01 545.221 1401.07 526.136 1383.38C515.175 1372.54 507.483 1360 500.982 1346.17C500.267 1344.65 499.523 1343.15 498.773 1341.66C479.981 1303.03 473.234 1252.01 471.347 1209.43C471.245 1206.55 471.245 1206.55 470.641 1204.52C470.052 1202.02 469.94 1199.69 469.855 1197.13C469.818 1196.13 469.78 1195.13 469.742 1194.1C469.69 1192.53 469.69 1192.53 469.636 1190.94C469.567 1188.88 469.494 1186.82 469.418 1184.76C469.387 1183.85 469.357 1182.93 469.326 1181.99C469.136 1179.38 468.672 1176.94 468.136 1174.38C467.906 1171.58 467.716 1168.8 467.574 1166C467.531 1165.19 467.489 1164.38 467.445 1163.55C466.958 1153.16 467.045 1142.77 467.136 1132.38C467.466 1132.38 467.796 1132.38 468.136 1132.38C468.136 1134.36 468.136 1136.34 468.136 1138.38C469.126 1138.38 470.116 1138.38 471.136 1138.38C474.185 1157.9 474.185 1157.9 474.636 1164.19C475.287 1172.45 476.869 1180.81 479.562 1188.65C481.344 1193.84 482.629 1199.12 483.949 1204.44C486.222 1213.36 488.909 1221.88 492.356 1230.41C493.181 1232.49 493.953 1234.59 494.718 1236.69C500.688 1252.93 508.676 1268.03 518.453 1282.3C521.136 1286.23 521.136 1286.23 521.136 1288.38C522.126 1288.71 523.116 1289.04 524.136 1289.38C528.136 1293.84 528.136 1293.84 528.136 1296.38C529.126 1296.71 530.116 1297.04 531.136 1297.38C532.322 1298.83 533.506 1300.28 534.664 1301.75C536.279 1303.54 537.961 1304.78 539.949 1306.13C541.001 1306.87 542.053 1307.61 543.136 1308.38C543.136 1309.04 543.136 1309.7 543.136 1310.38C543.838 1310.63 544.539 1310.87 545.261 1311.13C548.531 1312.55 551.277 1314.25 554.136 1316.38C554.136 1317.04 554.136 1317.7 554.136 1318.38C555.422 1318.77 555.422 1318.77 556.734 1319.17C560.237 1320.41 563.303 1321.99 566.574 1323.75C573.87 1327.54 581.129 1329.56 589.136 1331.38C590.004 1331.59 590.871 1331.81 591.765 1332.03C596.863 1333.25 601.907 1334.02 607.136 1334.38C608.088 1334.47 609.039 1334.56 610.019 1334.65C638.522 1336.07 664.944 1324.15 689.187 1310.68C700.583 1304.35 712.106 1298.58 724.695 1295.07C727.117 1294.47 727.117 1294.47 729.136 1293.38C744.012 1292.2 758.998 1292.69 772.136 1300.38C772.751 1300.71 773.366 1301.04 774 1301.38C777.678 1303.39 781.032 1305.56 784.136 1308.38C784.136 1309.04 784.136 1309.7 784.136 1310.38C784.817 1310.54 785.498 1310.71 786.199 1310.88C790.487 1313.07 793.331 1316.5 796.136 1320.38C796.136 1321.04 796.136 1321.7 796.136 1322.38C796.796 1322.38 797.456 1322.38 798.136 1322.38C798.466 1323.7 798.796 1325.02 799.136 1326.38C799.796 1326.38 800.456 1326.38 801.136 1326.38C801.136 1327.04 801.136 1327.7 801.136 1328.38C801.734 1328.63 802.333 1328.87 802.949 1329.13C805.453 1330.56 806.617 1331.95 808.136 1334.38C808.136 1335.04 808.136 1335.7 808.136 1336.38C808.796 1336.38 809.456 1336.38 810.136 1336.38C810.239 1337.02 810.343 1337.66 810.449 1338.32C810.676 1339 810.903 1339.68 811.136 1340.38C812.126 1340.71 813.116 1341.04 814.136 1341.38C815.523 1342.94 815.523 1342.94 816.824 1344.82C817.261 1345.43 817.698 1346.05 818.148 1346.69C819.136 1348.38 819.136 1348.38 819.136 1350.38C819.796 1350.38 820.456 1350.38 821.136 1350.38C826.136 1355.85 826.136 1355.85 826.136 1358.38C826.796 1358.38 827.456 1358.38 828.136 1358.38C829.433 1359.73 829.433 1359.73 830.886 1361.57C832.94 1364.07 834.975 1366.18 837.511 1368.19C838.378 1368.91 839.244 1369.63 840.136 1370.38C840.136 1371.04 840.136 1371.7 840.136 1372.38C840.796 1372.38 841.456 1372.38 842.136 1372.38C842.136 1373.04 842.136 1373.7 842.136 1374.38C842.796 1374.38 843.456 1374.38 844.136 1374.38C844.796 1375.37 845.456 1376.36 846.136 1377.38C847.126 1377.71 848.116 1378.04 849.136 1378.38C849.136 1379.04 849.136 1379.7 849.136 1380.38C849.698 1380.65 850.26 1380.91 850.839 1381.19C853.292 1382.46 855.576 1383.87 857.886 1385.38C858.685 1385.89 859.485 1386.41 860.308 1386.94C861.213 1387.65 861.213 1387.65 862.136 1388.38C862.136 1389.04 862.136 1389.7 862.136 1390.38C863.024 1390.56 863.024 1390.56 863.929 1390.75C866.818 1391.57 869.048 1393.18 871.558 1394.79C895.191 1409.33 918.867 1415.59 946.511 1415.5C947.749 1415.51 948.986 1415.51 950.261 1415.52C961.971 1415.5 972.849 1414.87 984.136 1411.63C985.096 1411.36 986.056 1411.09 987.045 1410.81C993.986 1408.81 1000.62 1406.52 1007.14 1403.38C1007.75 1403.09 1008.36 1402.8 1008.98 1402.5C1025.51 1394.57 1039.68 1385.64 1053.11 1373.07C1055.14 1371.38 1055.14 1371.38 1057.14 1371.38C1057.14 1370.72 1057.14 1370.06 1057.14 1369.38C1058.64 1367.97 1058.64 1367.97 1060.7 1366.32C1064.68 1362.97 1067.67 1359.31 1070.69 1355.1C1071.41 1354.25 1071.41 1354.25 1072.14 1353.38C1072.8 1353.38 1073.46 1353.38 1074.14 1353.38C1074.38 1352.83 1074.63 1352.28 1074.89 1351.71C1076.39 1348.91 1078.2 1346.53 1080.14 1344C1084.87 1337.78 1089.43 1331.45 1093.94 1325.06C1094.78 1323.87 1095.64 1322.69 1096.51 1321.51C1098.48 1318.82 1100.07 1316.56 1101.14 1313.38C1102.26 1312.26 1103.38 1311.14 1104.53 1310.05C1107.41 1307.05 1109.85 1303.69 1112.37 1300.39C1112.95 1299.73 1113.53 1299.06 1114.14 1298.38C1114.8 1298.38 1115.46 1298.38 1116.14 1298.38C1116.36 1297.83 1116.59 1297.28 1116.82 1296.71C1123.84 1284.24 1139.27 1274.5 1152.7 1270.63C1169.04 1266.9 1186.41 1269.64 1201.14 1277.38C1201.83 1277.71 1202.52 1278.04 1203.23 1278.38C1210.9 1282.04 1218.01 1286.59 1225.01 1291.38C1229.99 1294.73 1235.06 1297.49 1240.47 1300.07C1242.61 1301.12 1244.57 1302.23 1246.57 1303.5C1251.67 1306.49 1257.48 1307.84 1263.14 1309.38C1263.91 1309.61 1264.69 1309.84 1265.5 1310.07C1271.36 1311.55 1277.25 1311.58 1283.26 1311.63C1284.11 1311.64 1284.96 1311.65 1285.83 1311.66C1291.27 1311.63 1295.91 1310.89 1301.14 1309.38C1301.8 1309.21 1302.46 1309.05 1303.14 1308.88C1304.82 1308.44 1306.48 1307.92 1308.14 1307.38C1308.47 1306.72 1308.8 1306.06 1309.14 1305.38C1311.14 1304.71 1313.14 1304.05 1315.14 1303.38C1316.4 1302.7 1317.65 1301.99 1318.89 1301.25C1322.14 1299.38 1322.14 1299.38 1324.14 1299.38C1324.14 1298.72 1324.14 1298.06 1324.14 1297.38C1324.96 1296.86 1325.79 1296.35 1326.64 1295.82C1331.61 1292.69 1336.5 1287.64 1339.14 1282.38C1339.8 1282.38 1340.46 1282.38 1341.14 1282.38C1341.5 1281.58 1341.5 1281.58 1341.87 1280.77C1343.15 1278.35 1344.62 1276.12 1346.16 1273.86C1351.6 1265.79 1355.5 1257.39 1359.14 1248.38C1359.8 1248.38 1360.46 1248.38 1361.14 1248.38C1361.3 1247.09 1361.3 1247.09 1361.47 1245.78C1362.17 1242.19 1363.32 1239.24 1364.76 1235.88C1375.2 1210.54 1381.24 1183.94 1383.84 1156.71C1384.14 1154.38 1384.14 1154.38 1384.62 1152.54C1385.19 1150.17 1385.45 1147.88 1385.68 1145.45C1385.77 1144.46 1385.86 1143.47 1385.96 1142.46C1386.06 1141.39 1386.16 1140.32 1386.26 1139.22C1386.36 1138.11 1386.47 1136.99 1386.57 1135.84C1394.61 1049.15 1395.58 961.607 1389.3 874.743C1389.14 872.464 1388.99 870.185 1388.85 867.905C1388.81 867.218 1388.77 866.531 1388.72 865.824C1388.61 864.033 1388.5 862.242 1388.39 860.451C1388.06 856.493 1387.37 852.646 1386.66 848.742C1386.02 844.631 1385.64 840.521 1385.26 836.379C1384.46 827.78 1383.35 819.24 1382.14 810.691C1381.97 809.51 1381.8 808.328 1381.63 807.111C1380.81 801.452 1379.91 795.874 1378.55 790.319C1378.09 788.171 1377.89 786.065 1377.7 783.879C1377.4 780.871 1376.86 778.326 1375.81 775.496C1373.62 769.128 1372.29 762.569 1370.82 756.004C1368.63 746.313 1366.21 736.791 1363.07 727.356C1361.32 722.076 1360.04 716.879 1359.14 711.379C1358.48 711.379 1357.82 711.379 1357.14 711.379C1355.67 706.984 1354.21 702.589 1352.74 698.195C1352.48 697.401 1352.21 696.608 1351.94 695.79C1351.4 694.176 1350.87 692.56 1350.35 690.942C1349.07 686.98 1347.74 683.248 1345.76 679.566C1338.14 664.803 1338.14 664.803 1338.14 660.379C1337.48 660.379 1336.82 660.379 1336.14 660.379C1335.52 658.772 1335.52 658.772 1334.89 657.132C1334.35 655.735 1333.81 654.338 1333.26 652.941C1332.99 652.234 1332.72 651.527 1332.44 650.798C1331.16 646.879 1331.16 646.879 1328.14 644.379C1327.16 642.619 1326.25 640.819 1325.39 639.004C1322.87 633.816 1320.18 628.769 1317.34 623.754C1316.25 621.601 1315.6 619.734 1315.14 617.379C1314.48 617.379 1313.82 617.379 1313.14 617.379C1309.57 612.62 1306.77 607.341 1303.82 602.183C1302.23 599.408 1302.23 599.408 1300.42 597.136C1299.14 595.379 1299.14 595.379 1299.14 593.379C1298.48 593.379 1297.82 593.379 1297.14 593.379C1296.48 591.399 1295.82 589.419 1295.14 587.379C1294.48 587.379 1293.82 587.379 1293.14 587.379C1290.14 582.994 1290.14 582.994 1290.14 580.379C1289.48 580.379 1288.82 580.379 1288.14 580.379C1284.14 576.026 1284.14 576.026 1284.14 572.379C1283.15 572.049 1282.16 571.719 1281.14 571.379C1278.14 567.045 1278.14 567.045 1278.14 564.379C1277.15 564.049 1276.16 563.719 1275.14 563.379C1272.14 559.934 1272.14 559.934 1272.14 557.379C1271.48 557.379 1270.82 557.379 1270.14 557.379C1269.98 556.419 1269.98 556.419 1269.82 555.441C1269.6 554.76 1269.37 554.08 1269.14 553.379C1268.15 553.049 1267.16 552.719 1266.14 552.379C1266.14 551.719 1266.14 551.059 1266.14 550.379C1265.48 550.379 1264.82 550.379 1264.14 550.379C1263.87 549.574 1263.6 548.77 1263.32 547.941C1262.93 547.095 1262.54 546.25 1262.14 545.379C1261.15 545.049 1260.16 544.719 1259.14 544.379C1254.14 538.913 1254.14 538.913 1254.14 536.379C1252.82 535.719 1251.5 535.059 1250.14 534.379C1250.14 533.719 1250.14 533.059 1250.14 532.379C1248.82 531.719 1247.5 531.059 1246.14 530.379C1246.14 529.719 1246.14 529.059 1246.14 528.379C1245.35 528.172 1244.57 527.966 1243.76 527.754C1240.23 525.903 1240.36 524.052 1239.14 520.379C1236.63 518.939 1236.63 518.939 1234.14 518.379C1234.14 517.719 1234.14 517.059 1234.14 516.379C1233.48 516.379 1232.82 516.379 1232.14 516.379C1232.14 515.719 1232.14 515.059 1232.14 514.379C1231.48 514.379 1230.82 514.379 1230.14 514.379C1230.14 513.719 1230.14 513.059 1230.14 512.379C1228.82 512.049 1227.5 511.719 1226.14 511.379C1226.14 510.719 1226.14 510.059 1226.14 509.379C1225.48 509.379 1224.82 509.379 1224.14 509.379C1224.14 508.719 1224.14 508.059 1224.14 507.379C1223.33 507.038 1223.33 507.038 1222.51 506.691C1220.41 505.53 1218.83 504.358 1217.01 502.816C1214.41 500.418 1214.41 500.418 1212.14 499.379C1212.14 498.719 1212.14 498.059 1212.14 497.379C1211.48 497.379 1210.82 497.379 1210.14 497.379C1210.14 496.719 1210.14 496.059 1210.14 495.379C1209.48 495.379 1208.82 495.379 1208.14 495.379C1206.78 494.067 1205.45 492.732 1204.14 491.379C1203.48 491.049 1202.82 490.719 1202.14 490.379C1202.14 489.719 1202.14 489.059 1202.14 488.379C1201.41 488.132 1200.68 487.886 1199.93 487.632C1196.85 486.25 1194.95 484.627 1192.51 482.316C1189.23 479.196 1189.23 479.196 1185.14 477.379C1185.14 476.719 1185.14 476.059 1185.14 475.379C1184.02 475.131 1182.91 474.884 1181.76 474.629C1180.57 474.216 1179.37 473.804 1178.14 473.379C1177.81 472.698 1177.48 472.017 1177.14 471.316C1176.81 470.677 1176.48 470.037 1176.14 469.379C1173.81 468.971 1171.48 468.634 1169.14 468.379C1168.81 467.719 1168.48 467.059 1168.14 466.379C1168.8 466.379 1169.46 466.379 1170.14 466.379C1170.14 465.719 1170.14 465.059 1170.14 464.379C1169.48 464.379 1168.82 464.379 1168.14 464.379C1168.14 463.389 1168.14 462.399 1168.14 461.379Z" fill="#D4E2EC"/>
<path d="M804.136 681.379C805.458 681.666 806.779 681.951 808.101 682.234C824.749 686.13 840.482 696.029 853.136 707.379C854.223 708.254 854.223 708.254 855.332 709.148C877.34 727.361 891.321 756.949 894.761 784.941C897.501 818.336 888.773 851.2 866.949 876.961C864.722 879.478 862.442 881.933 860.136 884.379C859.474 885.117 858.811 885.856 858.128 886.617C845.924 899.68 828.515 910.174 811.136 914.379C811.945 915.057 812.753 915.735 813.586 916.433C821.222 923.012 827.211 928.898 828.699 939.316C828.136 942.379 828.136 942.379 826.636 944.316C822.968 945.875 819.993 946.16 816.136 945.379C813.081 944.084 810.198 942.59 807.273 941.023C803.397 938.991 799.416 937.369 795.36 935.734C792.218 934.413 789.167 932.966 786.097 931.484C779.446 928.405 772.75 926.162 765.699 924.191C764.482 923.85 763.264 923.509 762.01 923.158C739.226 916.989 716.45 915.818 693.04 918.655C687.255 919.333 681.523 919.633 675.699 919.691C674.899 919.708 674.1 919.726 673.276 919.744C669.981 919.741 667.566 919.61 664.636 918.035C663.136 916.379 663.136 916.379 662.574 913.566C663.568 907.932 666.511 905.567 670.941 902.328C678.727 897.221 686.655 893.379 696.136 893.379C695.353 892.409 694.569 891.44 693.761 890.441C693.32 889.896 692.88 889.35 692.425 888.789C691.17 887.246 691.17 887.246 689.136 886.379C689.136 885.719 689.136 885.059 689.136 884.379C688.476 884.379 687.816 884.379 687.136 884.379C685.322 882.291 683.625 880.198 681.949 878.004C681.454 877.362 680.959 876.72 680.45 876.058C679.003 874.171 677.569 872.276 676.136 870.379C675.465 869.499 674.793 868.62 674.101 867.714C656.652 843.946 649.533 811.926 653.711 782.851C654.361 778.989 655.226 775.188 656.136 771.379C656.353 770.337 656.569 769.295 656.793 768.222C660.873 749.763 670.994 733.619 683.136 719.379C683.612 718.77 684.088 718.162 684.578 717.535C689.019 711.967 694.52 707.711 700.136 703.379C701.293 702.481 701.293 702.481 702.472 701.566C715.397 692.038 729.752 685.712 745.136 681.379C746.286 681.038 747.436 680.698 748.621 680.347C766.2 675.973 786.7 676.808 804.136 681.379Z" fill="#020303"/>
<path d="M1207.32 685.672C1208.83 686.261 1210.37 686.808 1211.9 687.343C1225.36 692.18 1236.69 700.83 1247.14 710.379C1248.34 711.454 1248.34 711.454 1249.56 712.55C1270.21 732.035 1284.64 761.537 1285.47 790.004C1285.51 792.796 1285.52 795.586 1285.51 798.379C1285.51 799.109 1285.51 799.84 1285.51 800.593C1285.36 827.707 1277.01 852.667 1260.07 874.191C1259.67 874.724 1259.26 875.257 1258.84 875.806C1256.16 879.256 1253.25 882.324 1250.14 885.379C1249.02 886.635 1247.91 887.904 1246.82 889.191C1246.31 889.796 1245.8 890.4 1245.27 891.023C1244.9 891.47 1244.52 891.918 1244.14 892.379C1244.85 892.502 1245.57 892.626 1246.3 892.754C1256.87 894.94 1267.58 899.877 1274.24 908.714C1275.75 911.507 1275.9 913.325 1275.14 916.379C1271.15 919.521 1268 919.758 1263.01 919.691C1262.31 919.683 1261.62 919.674 1260.9 919.666C1255.58 919.548 1250.35 919.009 1245.07 918.379C1205.78 913.758 1169.4 923.055 1133.74 939.32C1131.2 940.353 1128.84 940.941 1126.14 941.379C1126.14 942.039 1126.14 942.699 1126.14 943.379C1122.01 944.952 1118.56 946.051 1114.14 945.379C1111.7 943.316 1111.7 943.316 1110.14 940.379C1109.88 933.815 1113.2 928.409 1117.14 923.379C1119.71 921.036 1122.35 918.933 1125.16 916.875C1126.14 916.134 1126.14 916.134 1127.14 915.379C1127.14 915.049 1127.14 914.719 1127.14 914.379C1126.17 914.145 1125.21 913.912 1124.22 913.671C1119.44 912.3 1115.19 910.033 1110.82 907.691C1109.98 907.24 1109.13 906.79 1108.26 906.326C1102.23 903.062 1096.52 899.648 1091.14 895.379C1090.13 894.592 1089.11 893.806 1088.07 892.996C1073.93 881.703 1064.06 868.605 1056.14 852.379C1055.57 851.223 1055.57 851.223 1054.99 850.045C1042.65 824.237 1039.03 792.856 1048.14 765.379C1048.5 764.275 1048.5 764.275 1048.87 763.149C1054.27 747.195 1061.92 732.992 1073.14 720.379C1073.81 719.563 1074.48 718.747 1075.18 717.906C1089.39 701.106 1108.38 690.06 1129.14 683.379C1130.47 682.824 1131.81 682.263 1133.14 681.691C1155.65 673.454 1185.58 677.13 1207.32 685.672Z" fill="#020303"/>
<path d="M888.386 965.066C889.485 965.029 890.583 964.991 891.714 964.953C899.333 965.901 903.512 970.476 908.261 976.004C922.857 992.258 941.424 1003.54 963.668 1004.76C987.332 1005.5 1007.33 999.45 1025.06 983.367C1028.96 979.668 1032.59 975.698 1036.09 971.618C1039.78 967.398 1042.48 965.654 1048.04 965.078C1055.49 965.049 1059.91 965.693 1065.76 970.566C1070.73 976.446 1072.97 981.719 1072.64 989.519C1069.73 1005.91 1051.7 1022.01 1038.57 1031.25C1036.44 1032.64 1034.29 1034.02 1032.14 1035.38C1031.23 1035.99 1030.32 1036.61 1029.39 1037.24C1005.71 1052.42 973.299 1055.95 946.136 1050.38C916.722 1043.86 887.442 1026.94 870.761 1001.13C866.889 994.575 866.476 988.903 867.136 981.379C868.901 974.701 873.623 970.284 879.136 966.379C882.394 965.293 884.958 965.142 888.386 965.066Z" fill="#030404"/>
<path d="M1222.14 727.379C1230.93 733.069 1236.64 742.675 1240.14 752.379C1240.58 755.287 1240.66 758.126 1240.64 761.066C1240.63 761.855 1240.63 762.644 1240.62 763.456C1240.32 773.652 1236.35 783.082 1229.14 790.379C1219.67 798.272 1209.51 802.328 1197.14 801.379C1185.21 799.869 1175.91 794.718 1168.41 785.238C1161.34 774.937 1159.98 766.245 1161.44 753.742C1163.65 742.563 1169.96 733.843 1179.17 727.187C1192.5 719.475 1208.7 719.825 1222.14 727.379Z" fill="#FBFBFA"/>
<path d="M829.535 726.668C839.68 732.97 845.379 742.106 849.136 753.379C850.294 772.393 850.294 772.393 845.136 780.379C844.712 781.133 844.288 781.887 843.851 782.664C838.063 792.321 829.037 798.361 818.199 801.129C817.188 801.211 816.178 801.294 815.136 801.379C814.432 801.442 813.729 801.505 813.003 801.57C802.016 802.118 792.501 798.683 784.285 791.437C783.576 790.758 782.867 790.078 782.136 789.379C781.551 788.833 780.966 788.288 780.363 787.726C773.665 780.773 770.664 771.927 770.574 762.379C770.778 751.606 773.764 742.318 781.136 734.379C781.7 733.762 782.263 733.146 782.843 732.511C795.112 720.475 814.593 718.637 829.535 726.668Z" fill="#FBFBFA"/>
<path d="M1123.3 815.027C1128.42 817.336 1132.01 820.724 1135.14 825.379C1137.06 831.137 1137.27 838.057 1135.3 843.836C1132.47 848.807 1128.51 852.355 1123.14 854.379C1116.93 855.405 1110.56 854.695 1105.14 851.379C1100.6 847.3 1097.58 842.881 1096.8 836.73C1096.71 830.717 1096.86 825.902 1101.14 821.379C1108.12 815.91 1114.32 812.333 1123.3 815.027Z" fill="#FAFAF8"/>
<path d="M735.386 816.004C740.229 818.743 743.078 822.11 745.449 827.191C746.893 833.885 746.883 839.443 743.48 845.519C740.51 849.629 736.954 852.772 732.136 854.379C725.31 855.118 719.748 854.512 714.136 850.379C709.055 845.508 706.996 841.767 706.824 834.629C706.896 829.189 707.398 825.438 711.136 821.379C718.36 814.983 726.061 811.739 735.386 816.004Z" fill="#FAFAF8"/>
</svg>
